# xmcd
#
# Track frame offsets: 
#        150
#        17759
#        35328
#        52204
#        70238
#        88092
#        104753
#        121198
#        140373
#        156161
#        176886
#
# Disc length: 2616 seconds
#
# Revision: 0
# Processed by: cddbd v1.5.2PL0 Copyright (c) Steve Scherf et al.
# Submitted via: ExactAudioCopy v1.0b3
#
DISCID=9c0a360b
DTITLE=Brad Wilson - Blues Magic
DYEAR=2012
DGENRE=Blues
TTITLE0=Blues Magic
TTITLE1=Raining In My Heart
TTITLE2=Roll With Me
TTITLE3=Hot Stuff
TTITLE4=My One Desire
TTITLE5=Cryin' Lonely Teardrops
TTITLE6=On A Summer Day
TTITLE7=Nobody But You
TTITLE8=I'm Still Breathin'
TTITLE9=The Road Back To You
TTITLE10=Wintergreen
EXTD=
EXTT0=
EXTT1=
EXTT2=
EXTT3=
EXTT4=
EXTT5=
EXTT6=
EXTT7=
EXTT8=
EXTT9=
EXTT10=
PLAYORDER=
